<svg width="350" height="70" viewBox="0 0 350 70" fill="none" xmlns="http://www.w3.org/2000/svg">
<g clip-path="url(#clip0_1452_24205)">
<rect x="6" y="4" width="338" height="100" fill="url(#paint0_radial_1452_24205)"/>
<rect x="202.715" y="55.1548" width="86.3537" height="37.3902" rx="5" transform="rotate(-6.04052 202.715 55.1548)" fill="url(#paint1_linear_1452_24205)"/>
<rect x="193.717" y="46.2598" width="100.598" height="18.6951" rx="5" transform="rotate(-6.04052 193.717 46.2598)" fill="#6AA4FB"/>
<path fill-rule="evenodd" clip-rule="evenodd" d="M254.299 13.8877C261.389 13.1375 267.744 18.2765 268.495 25.3661C269.245 32.4558 264.106 38.8112 257.016 39.5614L251.262 40.1705L256.227 87.0915L242.062 88.5904L237.097 41.6694L231.342 42.2782C224.253 43.0284 217.897 37.8893 217.147 30.7997C216.397 23.7101 221.536 17.3547 228.625 16.6045C235.715 15.8543 242.07 20.9934 242.821 28.083C242.07 20.9934 247.21 14.6379 254.299 13.8877ZM250.404 33.222L249.782 27.3463C249.439 24.1012 251.791 21.1922 255.036 20.8488C258.281 20.5054 261.19 22.8577 261.533 26.1028C261.877 29.3478 259.525 32.2569 256.279 32.6003L250.404 33.222ZM235.86 28.8196L236.481 34.6953L230.606 35.3171C227.361 35.6605 224.451 33.3082 224.108 30.0631C223.765 26.818 226.117 23.909 229.362 23.5656C232.607 23.2222 235.516 25.5745 235.86 28.8196Z" fill="#FAC93D"/>
<rect x="14.6338" y="53.749" width="80.7213" height="73.2317" rx="5" transform="rotate(-15 14.6338 53.749)" fill="url(#paint2_linear_1452_24205)"/>
<rect x="5.24609" y="47.6494" width="94.0361" height="17.4757" rx="5" transform="rotate(-15 5.24609 47.6494)" fill="#6AA4FB"/>
<path fill-rule="evenodd" clip-rule="evenodd" d="M56.4736 8.93808C62.9107 7.21326 69.5272 11.0333 71.252 17.4704C72.9769 23.9076 69.1568 30.5241 62.7197 32.2489L57.4951 33.6488L78.6026 112.423L65.7414 115.869L44.6339 37.0948L39.4085 38.495C32.9713 40.2198 26.3548 36.3997 24.63 29.9626C22.9052 23.5255 26.7252 16.909 33.1623 15.1841C39.5994 13.4593 46.216 17.2794 47.9408 23.7165C46.216 17.2794 50.0364 10.6629 56.4736 8.93808ZM56.014 26.7988L54.7027 21.9048C53.9785 19.202 55.5824 16.4238 58.2853 15.6996C60.9881 14.9753 63.7663 16.5793 64.4906 19.2822C65.2148 21.985 63.6108 24.7632 60.908 25.4874L56.014 26.7988ZM41.1793 25.5282L42.4907 30.4222L37.5967 31.7335C34.8939 32.4577 32.1157 30.8537 31.3915 28.1509C30.6672 25.448 32.2712 22.6699 34.9741 21.9456C37.6769 21.2214 40.4551 22.8254 41.1793 25.5282Z" fill="#FAC93D"/>
<rect x="93.8545" y="42.3618" width="74.0028" height="67.1366" rx="5" transform="rotate(6.87602 93.8545 42.3618)" fill="url(#paint3_linear_1452_24205)"/>
<rect x="87.9512" y="33.9653" width="86.2094" height="16.0212" rx="5" transform="rotate(6.87602 87.9512 33.9653)" fill="#DB533E"/>
<path fill-rule="evenodd" clip-rule="evenodd" d="M110.483 25.5403C111.214 19.4747 116.725 15.1505 122.79 15.8819C128.84 16.6115 133.158 22.0958 132.454 28.1434C133.207 22.1017 138.705 17.8009 144.755 18.5305C150.821 19.262 155.145 24.772 154.414 30.8376C153.682 36.9032 148.172 41.2274 142.107 40.4959L137.183 39.9022L128.232 114.13L116.113 112.669L125.064 38.4408L120.141 37.8474C114.076 37.1159 109.752 31.6058 110.483 25.5403ZM125.499 27.351L125.012 31.384L120.979 30.8977C118.752 30.6291 117.164 28.6057 117.433 26.3783C117.701 24.1509 119.725 22.563 121.952 22.8316C124.179 23.1002 125.767 25.1236 125.499 27.351ZM138.912 33.0599L139.398 29.0269C139.667 26.7995 141.69 25.2116 143.917 25.4802C146.145 25.7488 147.733 27.7722 147.464 29.9996C147.195 32.227 145.172 33.8149 142.945 33.5463L138.912 33.0599Z" fill="url(#paint4_linear_1452_24205)"/>
<rect x="163.018" y="46.6265" width="45.1794" height="54.0712" rx="5" transform="rotate(-4.99311 163.018 46.6265)" fill="url(#paint5_linear_1452_24205)"/>
<rect x="154.633" y="38.8018" width="58.8185" height="17.9013" rx="5" transform="rotate(-4.99311 154.633 38.8018)" fill="#EE8871"/>
<path fill-rule="evenodd" clip-rule="evenodd" d="M192.065 16.7061C197.224 16.2553 201.772 20.0722 202.223 25.2312C202.673 30.3903 198.857 34.9379 193.698 35.3886L191.33 35.5955L191.149 35.6111L195.452 84.8651L181.865 86.0522L177.562 36.7985L175.015 37.021C169.856 37.4718 165.308 33.6549 164.857 28.4959C164.407 23.3368 168.224 18.7892 173.383 18.3385C178.542 17.8877 183.089 21.7046 183.54 26.8636C183.089 21.7046 186.906 17.1568 192.065 16.7061ZM190.72 28.6221L190.514 26.2542C190.399 24.9465 191.367 23.7938 192.675 23.6795C193.982 23.5653 195.135 24.5328 195.249 25.8405C195.363 27.1482 194.396 28.3009 193.088 28.4152L190.72 28.6221ZM176.567 27.4729L176.773 29.8407L174.406 30.0476C173.098 30.1618 171.945 29.1943 171.831 27.8866C171.717 26.5789 172.684 25.4262 173.992 25.3119C175.3 25.1977 176.452 26.1652 176.567 27.4729Z" fill="url(#paint6_linear_1452_24205)"/>
<rect x="292.688" y="41.8428" width="44.3958" height="40.2075" rx="5" transform="rotate(15 292.688 41.8428)" fill="url(#paint7_linear_1452_24205)"/>
<rect x="287.574" y="31.8003" width="57.7983" height="17.5908" rx="5" transform="rotate(15 287.574 31.8003)" fill="#DB533E"/>
<path fill-rule="evenodd" clip-rule="evenodd" d="M300.478 25.7184C301.795 20.8029 306.847 17.8859 311.763 19.203C316.656 20.5142 319.569 25.5275 318.296 30.4222C319.64 25.5464 324.669 22.6612 329.563 23.9724C334.478 25.2895 337.395 30.342 336.078 35.2575C334.761 40.173 329.709 43.09 324.793 41.7729L322.654 41.1998L322.366 41.1229L309.792 88.0515L296.846 84.5827L309.42 37.6541L306.993 37.0035C302.078 35.6864 299.161 30.6339 300.478 25.7184ZM311.517 28.6763L310.944 30.8151L308.805 30.242C307.624 29.9255 306.923 28.7114 307.239 27.5301C307.556 26.3489 308.77 25.6479 309.951 25.9645C311.132 26.281 311.833 27.4951 311.517 28.6763ZM324.466 34.4384L325.039 32.2996C325.356 31.1184 326.57 30.4174 327.751 30.7339C328.932 31.0504 329.633 32.2645 329.317 33.4457C329 34.627 327.786 35.3279 326.605 35.0114L324.466 34.4384Z" fill="url(#paint8_linear_1452_24205)"/>
</g>
<defs>
<radialGradient id="paint0_radial_1452_24205" cx="0" cy="0" r="1" gradientUnits="userSpaceOnUse" gradientTransform="translate(175 54) rotate(90) scale(50 169)">
<stop stop-color="#6AA4FB" stop-opacity="0.36"/>
<stop offset="1" stop-color="#6AA4FB" stop-opacity="0"/>
</radialGradient>
<linearGradient id="paint1_linear_1452_24205" x1="245.892" y1="55.1548" x2="245.892" y2="92.545" gradientUnits="userSpaceOnUse">
<stop stop-color="#3F7AD4"/>
<stop offset="0.640625" stop-color="#6AA4FB"/>
</linearGradient>
<linearGradient id="paint2_linear_1452_24205" x1="54.9944" y1="53.749" x2="54.9944" y2="126.981" gradientUnits="userSpaceOnUse">
<stop stop-color="#3F7AD4"/>
<stop offset="0.341199" stop-color="#6AA4FB"/>
</linearGradient>
<linearGradient id="paint3_linear_1452_24205" x1="130.856" y1="42.3618" x2="130.856" y2="109.498" gradientUnits="userSpaceOnUse">
<stop stop-color="#A23726"/>
<stop offset="0.341199" stop-color="#DB533E"/>
</linearGradient>
<linearGradient id="paint4_linear_1452_24205" x1="138" y1="40" x2="131" y2="89.5" gradientUnits="userSpaceOnUse">
<stop stop-color="#FAC93D"/>
<stop offset="1" stop-color="#D8A021"/>
</linearGradient>
<linearGradient id="paint5_linear_1452_24205" x1="185.607" y1="46.6265" x2="185.607" y2="100.698" gradientUnits="userSpaceOnUse">
<stop stop-color="#D47864"/>
<stop offset="0.505208" stop-color="#EE8871"/>
</linearGradient>
<linearGradient id="paint6_linear_1452_24205" x1="177.5" y1="37" x2="181.5" y2="78.5" gradientUnits="userSpaceOnUse">
<stop stop-color="#FAC93D"/>
<stop offset="1" stop-color="#D8A021"/>
</linearGradient>
<linearGradient id="paint7_linear_1452_24205" x1="314.886" y1="41.8428" x2="314.886" y2="82.0503" gradientUnits="userSpaceOnUse">
<stop stop-color="#A23726"/>
<stop offset="0.505208" stop-color="#DB533E"/>
</linearGradient>
<linearGradient id="paint8_linear_1452_24205" x1="323" y1="41.5" x2="312" y2="81" gradientUnits="userSpaceOnUse">
<stop stop-color="#FAC93D"/>
<stop offset="1" stop-color="#D8A021"/>
</linearGradient>
<clipPath id="clip0_1452_24205">
<rect width="350" height="70" fill="white"/>
</clipPath>
</defs>
</svg>
