<svg width="1227" height="204" viewBox="0 0 1227 204" fill="none" xmlns="http://www.w3.org/2000/svg">
<g clip-path="url(#clip0_1459_27190)">
<rect x="877.219" y="154.16" width="86.3537" height="37.3902" rx="5" transform="rotate(-6.04052 877.219 154.16)" fill="url(#paint0_linear_1459_27190)"/>
<rect x="868.223" y="145.266" width="100.598" height="18.6951" rx="5" transform="rotate(-6.04052 868.223 145.266)" fill="#6AA4FB"/>
<path fill-rule="evenodd" clip-rule="evenodd" d="M928.803 112.895C935.892 112.145 942.248 117.284 942.998 124.373C943.748 131.463 938.609 137.819 931.52 138.569L925.765 139.178L930.731 186.098L916.566 187.597L911.601 140.677L905.846 141.286C898.757 142.036 892.401 136.897 891.651 129.807C890.901 122.717 896.04 116.362 903.129 115.612C910.198 114.864 916.537 119.971 917.318 127.028C916.604 119.964 921.734 113.643 928.803 112.895ZM924.907 132.229L924.285 126.354C923.942 123.109 926.294 120.2 929.539 119.856C932.784 119.513 935.693 121.865 936.037 125.11C936.38 128.355 934.028 131.264 930.783 131.608L924.907 132.229ZM910.363 127.827L910.985 133.703L905.109 134.324C901.864 134.668 898.955 132.316 898.612 129.07C898.269 125.825 900.621 122.916 903.866 122.573C907.111 122.23 910.02 124.582 910.363 127.827Z" fill="#FAC93D"/>
<rect x="267.723" y="120.852" width="86.3537" height="37.3902" rx="5" transform="rotate(9.33057 267.723 120.852)" fill="url(#paint1_linear_1459_27190)"/>
<rect x="261.402" y="109.891" width="100.598" height="18.6951" rx="5" transform="rotate(9.33057 261.402 109.891)" fill="#DB533E"/>
<path fill-rule="evenodd" clip-rule="evenodd" d="M328.399 94.7353C335.434 95.8911 340.2 102.531 339.044 109.566C337.888 116.601 331.249 121.367 324.214 120.211L318.503 119.273L310.854 165.832L296.798 163.522L304.448 116.964L298.738 116.026C291.703 114.87 286.937 108.23 288.093 101.195C289.249 94.1603 295.889 89.3945 302.924 90.5503C309.958 91.7062 314.724 98.3461 313.569 105.381C314.724 98.3461 321.365 93.5794 328.399 94.7353ZM320.476 106.515C321.005 103.295 324.044 101.114 327.264 101.643C330.485 102.172 332.666 105.211 332.137 108.431C331.608 111.651 328.569 113.832 325.349 113.303L319.518 112.345L320.476 106.515ZM306.661 104.246L305.703 110.076L299.873 109.118C296.653 108.589 294.471 105.55 295 102.33C295.529 99.1101 298.569 96.9286 301.789 97.4577C305.009 97.9868 307.19 101.026 306.661 104.246Z" fill="#FAC93D"/>
<rect x="36.9922" y="49.3965" width="80.7213" height="73.2317" rx="5" transform="rotate(-6.95525 36.9922 49.3965)" fill="url(#paint2_linear_1459_27190)"/>
<rect x="28.5469" y="42.0449" width="94.0361" height="17.4757" rx="5" transform="rotate(-6.95525 28.5469 42.0449)" fill="#6AA4FB"/>
<path fill-rule="evenodd" clip-rule="evenodd" d="M50.215 27.2442C49.408 20.6291 54.1164 14.6122 60.7316 13.8052C67.3467 12.9983 73.3635 17.7067 74.1705 24.3218C73.3635 17.7067 78.0721 11.6904 84.6872 10.8834C91.3024 10.0764 97.3192 14.7848 98.1262 21.4C98.9332 28.0151 94.2248 34.032 87.6096 34.839L82.2406 35.4941L92.1163 116.447L78.8994 118.06L69.0238 37.1064L63.6539 37.7608C57.0388 38.5678 51.022 33.8594 50.215 27.2442ZM67.2221 25.1695L67.8356 30.1988L62.8063 30.8123C60.0287 31.1512 57.5023 29.1742 57.1635 26.3966C56.8246 23.619 58.8016 21.0926 61.5792 20.7537C64.3568 20.4149 66.8832 22.3919 67.2221 25.1695ZM81.7326 28.504L81.1191 23.4747C80.7803 20.6971 82.7573 18.1707 85.5349 17.8319C88.3125 17.493 90.8389 19.47 91.1777 22.2476C91.5166 25.0252 89.5395 27.5516 86.7619 27.8905L81.7326 28.504Z" fill="#FAC93D"/>
<rect x="487.303" y="139.002" width="80.7213" height="73.2317" rx="5" transform="rotate(-25.09 487.303 139.002)" fill="url(#paint3_linear_1459_27190)"/>
<rect x="476.994" y="134.641" width="94.0361" height="17.4757" rx="5" transform="rotate(-25.09 476.994 134.641)" fill="#EE8872"/>
<path fill-rule="evenodd" clip-rule="evenodd" d="M536.691 93.3648C533.865 87.3294 526.682 84.7277 520.647 87.5535C514.625 90.373 512.021 97.5301 514.816 103.557C511.977 97.5508 504.812 94.9674 498.791 97.7869C492.755 100.613 490.153 107.796 492.979 113.832C495.805 119.867 502.989 122.469 509.024 119.643L513.613 117.494L513.923 117.35L548.505 191.208L560.563 185.562L525.981 111.704L530.88 109.41C536.915 106.584 539.517 99.4002 536.691 93.3648ZM521.175 100.63L523.323 105.219L527.912 103.07C530.446 101.884 531.538 98.8673 530.352 96.3331C529.165 93.7989 526.149 92.7065 523.615 93.8931C521.081 95.0796 519.988 98.0958 521.175 100.63ZM508.496 106.566L510.644 111.155L506.056 113.303C503.522 114.49 500.505 113.397 499.319 110.863C498.132 108.329 499.225 105.313 501.759 104.126C504.293 102.94 507.309 104.032 508.496 106.566Z" fill="#FAC93D"/>
<rect x="734.738" y="56.9307" width="45.1794" height="54.0712" rx="5" transform="rotate(5.95203 734.738 56.9307)" fill="url(#paint4_linear_1459_27190)"/>
<rect x="727.992" y="47.6572" width="58.8185" height="17.9013" rx="5" transform="rotate(5.95203 727.992 47.6572)" fill="#DB533E"/>
<path fill-rule="evenodd" clip-rule="evenodd" d="M739.989 39.4805C740.526 34.3297 745.137 30.5895 750.287 31.1265C755.426 31.6623 759.161 36.2532 758.645 41.3897C759.199 36.2568 763.801 32.5347 768.94 33.0705C774.091 33.6075 777.831 38.2184 777.294 43.3691C776.757 48.5199 772.146 52.2601 766.995 51.7231L764.452 51.4581L757.961 113.721L744.395 112.306L750.886 50.0438L750.707 50.0256L748.343 49.7791C743.192 49.2421 739.452 44.6312 739.989 39.4805ZM751.679 40.6993L751.433 43.0633L749.069 42.8169C747.763 42.6807 746.815 41.512 746.951 40.2063C747.087 38.9007 748.256 37.9526 749.562 38.0888C750.867 38.2249 751.815 39.3936 751.679 40.6993ZM765.604 42.1503C765.74 40.8447 766.909 39.8966 768.214 40.0327C769.52 40.1689 770.468 41.3376 770.332 42.6433C770.196 43.9489 769.027 44.897 767.721 44.7608L765.357 44.5144L765.604 42.1503Z" fill="url(#paint5_linear_1459_27190)"/>
<rect x="1104.82" y="89.0811" width="44.3958" height="40.2075" rx="5" transform="rotate(-15.2437 1104.82 89.0811)" fill="url(#paint6_linear_1459_27190)"/>
<rect x="1095.35" y="82.9814" width="57.7983" height="17.5908" rx="5" transform="rotate(-15.2437 1095.35 82.9814)" fill="#EE8872"/>
<path fill-rule="evenodd" clip-rule="evenodd" d="M1127.68 55.0697C1132.59 53.7317 1137.65 56.6272 1138.99 61.5371C1140.33 66.4469 1137.43 71.5117 1132.52 72.8497L1130.39 73.4319L1130.1 73.5109L1142.87 120.386L1129.94 123.909L1117.17 77.0347L1116.88 77.1127L1114.74 77.6949C1109.83 79.0329 1104.77 76.1373 1103.43 71.2275C1102.09 66.3177 1104.99 61.2528 1109.9 59.9148C1114.8 58.5802 1119.85 61.4577 1121.2 66.3454C1119.89 61.4471 1122.78 56.4043 1127.68 55.0697ZM1128.55 66.6782L1127.97 64.5419C1127.64 63.362 1128.34 62.1449 1129.52 61.8234C1130.7 61.5019 1131.92 62.1977 1132.24 63.3775C1132.56 64.5574 1131.86 65.7745 1130.68 66.096L1128.55 66.6782ZM1114.46 68.2227L1115.04 70.359L1112.9 70.9412C1111.72 71.2627 1110.51 70.5669 1110.19 69.387C1109.86 68.2072 1110.56 66.99 1111.74 66.6685C1112.92 66.347 1114.14 67.0428 1114.46 68.2227Z" fill="url(#paint7_linear_1459_27190)"/>
</g>
<defs>
<linearGradient id="paint0_linear_1459_27190" x1="920.396" y1="154.16" x2="920.396" y2="191.55" gradientUnits="userSpaceOnUse">
<stop stop-color="#3F7AD4"/>
<stop offset="0.640625" stop-color="#6AA4FB"/>
</linearGradient>
<linearGradient id="paint1_linear_1459_27190" x1="310.899" y1="120.852" x2="310.899" y2="158.242" gradientUnits="userSpaceOnUse">
<stop stop-color="#C94A36"/>
<stop offset="0.640625" stop-color="#DB533E"/>
</linearGradient>
<linearGradient id="paint2_linear_1459_27190" x1="77.3528" y1="49.3965" x2="77.3528" y2="122.628" gradientUnits="userSpaceOnUse">
<stop stop-color="#3F7AD4"/>
<stop offset="0.341199" stop-color="#6AA4FB"/>
</linearGradient>
<linearGradient id="paint3_linear_1459_27190" x1="527.663" y1="139.002" x2="527.663" y2="212.234" gradientUnits="userSpaceOnUse">
<stop stop-color="#DE7E69"/>
<stop offset="0.341199" stop-color="#EE8871"/>
</linearGradient>
<linearGradient id="paint4_linear_1459_27190" x1="757.328" y1="56.9307" x2="757.328" y2="111.002" gradientUnits="userSpaceOnUse">
<stop stop-color="#BE4532"/>
<stop offset="0.505208" stop-color="#DB533E"/>
</linearGradient>
<linearGradient id="paint5_linear_1459_27190" x1="764.501" y1="52.0049" x2="758.641" y2="113.721" gradientUnits="userSpaceOnUse">
<stop stop-color="#FAC93D"/>
<stop offset="1" stop-color="#D8A021"/>
</linearGradient>
<linearGradient id="paint6_linear_1459_27190" x1="1127.02" y1="89.0811" x2="1127.02" y2="129.289" gradientUnits="userSpaceOnUse">
<stop stop-color="#D97B67"/>
<stop offset="0.505208" stop-color="#EE8872"/>
</linearGradient>
<linearGradient id="paint7_linear_1459_27190" x1="1117" y1="77.0049" x2="1130.5" y2="124.005" gradientUnits="userSpaceOnUse">
<stop stop-color="#FAC93D"/>
<stop offset="1" stop-color="#D8A021"/>
</linearGradient>
<clipPath id="clip0_1459_27190">
<rect width="1226" height="204" fill="white" transform="translate(0.5)"/>
</clipPath>
</defs>
</svg>
